<svg xmlns="http://www.w3.org/2000/svg" width="2400" height="2400" viewBox="0 0 2400 2400" version="1.1"><path d="M 1383 823.198 C 1356.353 839.833, 1335.056 864.458, 1323.387 892.127 C 1318.866 902.847, 1318.812 902.662, 1328.284 908.987 C 1360.797 930.702, 1377.245 960.553, 1387.490 1016.439 C 1388.895 1024.106, 1390.215 1030.548, 1390.421 1030.755 C 1390.628 1030.961, 1391.333 1027.839, 1391.987 1023.815 C 1403.514 952.937, 1416.148 929.115, 1455.915 903.274 C 1456.739 902.738, 1452.968 891.027, 1449.102 882.113 C 1438.823 858.414, 1418.194 835.012, 1396.206 822.107 C 1389.811 818.354, 1390.904 818.263, 1383 823.198 M 1591.417 893.062 C 1472.488 902.229, 1405.140 992.311, 1402.311 1146 C 1400.315 1254.439, 1435.303 1302.661, 1507.074 1290.388 C 1581.334 1277.689, 1607.428 1212.187, 1595.467 1068.500 C 1588.130 980.357, 1594.457 935.848, 1619.418 900.003 C 1623.340 894.370, 1623.713 893.415, 1622.221 892.823 C 1620.006 891.945, 1604.334 892.066, 1591.417 893.062 M 1158 893.362 C 1158 893.562, 1159.393 895.474, 1161.094 897.612 C 1183.912 926.278, 1189.520 962.205, 1186.500 1060.364 C 1182.634 1185.987, 1196.370 1233.174, 1251.562 1283.873 C 1310.585 1338.090, 1418.348 1354.797, 1458.318 1315.927 C 1465.439 1309.003, 1465.616 1309.447, 1454.930 1307.453 C 1389.295 1295.207, 1374.621 1266.961, 1374.434 1152.500 C 1374.296 1068.631, 1373.566 1062.579, 1359.285 1027 C 1330.153 954.422, 1262.651 903.784, 1182.026 894.026 C 1173.913 893.044, 1158 892.604, 1158 893.362" stroke="none" fill="#cc233c" fill-rule="evenodd"/><path d="M 2192.500 562.029 C 2063.734 576.614, 2007.615 731.135, 2096.916 825.215 C 2183.239 916.158, 2337.301 871.160, 2362.214 747.728 C 2382.934 645.075, 2296.292 550.273, 2192.500 562.029 M 980 1088.500 C 980 1604, 980 1604, 1049 1604 C 1118 1604, 1118 1604, 1118 1088.500 C 1118 573, 1118 573, 1049 573 C 980 573, 980 573, 980 1088.500 M 2191.204 584.173 C 2101.964 595.367, 2048.865 696.254, 2089.604 777.211 C 2135.251 867.923, 2261.764 876.912, 2318.622 793.483 C 2384.090 697.419, 2306.357 569.729, 2191.204 584.173 M 2146 716.427 C 2146 802, 2146 802, 2161.500 802 C 2177 802, 2177 802, 2177 768.390 C 2177 734.780, 2177 734.780, 2198.750 735.274 C 2240.700 736.226, 2247.277 742.298, 2248.942 781.611 C 2249.894 804.078, 2248.197 802, 2265.594 802 C 2280.070 802, 2280.070 802, 2278.835 799.750 C 2278.042 798.306, 2277.369 790.334, 2276.957 777.500 C 2275.935 745.737, 2267.290 730.459, 2246.775 724.161 C 2240.974 722.381, 2240.974 722.381, 2249.116 720.028 C 2294.489 706.917, 2288.993 644.594, 2241.471 633.337 C 2162.892 614.722, 2146 629.424, 2146 716.427 M 35 709.500 C 35 770, 35 770, 117 770 C 199 770, 199 770, 199 1187 C 199 1604, 199 1604, 269 1604 C 339 1604, 339 1604, 339 1187 C 339 770, 339 770, 417.500 770 C 496 770, 496 770, 496 709.500 C 496 649, 496 649, 265.500 649 C 35 649, 35 649, 35 709.500 M 2177 682.627 C 2177 713.873, 2192.975 722.248, 2229.225 710.006 C 2260.603 699.410, 2255.605 659.301, 2222.180 653.472 C 2182.674 646.583, 2177 650.244, 2177 682.627 M 1948 923.434 C 1904.945 931.128, 1866.535 955.608, 1838.342 993.321 C 1831 1003.143, 1831 1003.143, 1831 973.071 C 1831 943, 1831 943, 1758.500 943 C 1686 943, 1686 943, 1686 1391 C 1686 1839, 1686 1839, 1758.500 1839 C 1831 1839, 1831 1839, 1831 1692.500 C 1831 1605.807, 1831.369 1546, 1831.905 1546 C 1832.402 1546, 1834.252 1548.588, 1836.016 1551.750 C 1895.189 1657.848, 2043.437 1654.766, 2124.507 1545.752 C 2293.893 1317.983, 2170.700 883.635, 1948 923.434 M 420.307 1171.750 C 420.576 1323.638, 421.006 1385.293, 421.846 1392.500 C 440.617 1553.549, 518.599 1628.188, 668 1628.102 C 821.505 1628.012, 903.902 1542.989, 913.973 1374.289 C 932.783 1059.186, 914.267 961, 836.035 961 C 757.070 961, 757.070 961, 756.699 1174.750 C 756.313 1397.920, 756.415 1392.707, 751.901 1419.881 C 742.158 1478.541, 714.830 1506.354, 667 1506.288 C 622.135 1506.225, 596.240 1483.705, 584.453 1434.500 C 578.272 1408.698, 578.615 1422.730, 578.269 1181.250 C 577.953 961, 577.953 961, 498.943 961 C 419.934 961, 419.934 961, 420.307 1171.750 M 1924 1091.057 C 1848.373 1102.236, 1798.941 1222.366, 1823.618 1335 C 1854.579 1476.311, 1973.589 1506.577, 2030.993 1387.740 C 2094.063 1257.172, 2028.582 1075.597, 1924 1091.057 M 1171 1357.485 C 1171 1357.921, 1173.420 1361.252, 1176.378 1364.889 C 1200.967 1395.115, 1205.980 1420.510, 1201.399 1491.641 C 1199.671 1518.462, 1199.936 1561.559, 1201.907 1574.500 C 1206.194 1602.646, 1196.293 1600, 1297.340 1600 C 1388.313 1600, 1388.313 1600, 1387.641 1582.921 C 1382.204 1444.604, 1308.636 1361.771, 1187.250 1357.293 C 1178.313 1356.963, 1171 1357.050, 1171 1357.485 M 1604 1357.699 C 1490.278 1366.543, 1419.728 1450.497, 1415.297 1582.255 C 1414.729 1599.145, 1593.561 1612.659, 1597.178 1596 C 1602.724 1570.464, 1604.183 1536.083, 1601.486 1494.500 C 1596.815 1422.455, 1601.749 1395.619, 1624.997 1366.644 C 1628.849 1361.843, 1632 1357.710, 1632 1357.458 C 1632 1356.958, 1611.235 1357.137, 1604 1357.699" stroke="none" fill="#dcdcdc" fill-rule="evenodd"/></svg>